# xmcd
#
# Track frame offsets:
#	187
#	10800
#	22612
#	34050
#	44100
#	55687
#	66450
#	76837
#	89512
#	100650
#	114825
#	124950
#
# Disc length: 1916 seconds
#
# Revision: 2
# Processed by: cddbd v1.5.2PL0 Copyright (c) Steve Scherf et al.
# Submitted via: EZCDAudioConverter 2.1.5.1
#
DISCID=90077a0c
DTITLE=Jimmy C. Newman - THE ALLIGATOR MAN
DYEAR=1991
DGENRE=COUNTRY
TTITLE0=J'ai Fait Une Grosse Erreur
TTITLE1=Chere Tout Tout
TTITLE2=J'airais Du T'aimer
TTITLE3=La 'Tit Cord
TTITLE4=La Bague Que Brille
TTITLE5=He Madelaine
TTITLE6=Tennis Shoes
TTITLE7=Hier Soir
TTITLE8=La Porte D'en Arriere
TTITLE9=All The Wolrd Is Lonely Now
TTITLE10=Vieux Chance
TTITLE11=On Va Jamais Oublier
EXTD=
EXTT0=
EXTT1=
EXTT2=
EXTT3=
EXTT4=
EXTT5=
EXTT6=
EXTT7=
EXTT8=
EXTT9=
EXTT10=
EXTT11=
PLAYORDER=
